<svg xmlns="http://www.w3.org/2000/svg" viewBox="0 0 240 64" role="img" aria-labelledby="uspsLogoTitle">
  <title id="uspsLogoTitle">USPS</title>
  <rect x="12" y="12" width="98" height="38" rx="2" fill="#2d2a7d"/>
  <path d="M30 43c17-23 37-29 68-25-8 4-15 8-22 14 11-1 20 0 30 3-16 0-31 3-44 7-11 3-21 4-32 1z" fill="#ffffff"/>
  <path d="M63 19c9 4 18 6 31 8-10 2-18 6-28 14 15-6 29-9 45-10-12-7-28-11-42-13-2 0-4 0-6 1z" fill="#d40511"/>
  <text x="124" y="41" fill="#2d2a7d" font-family="Arial, Helvetica, sans-serif" font-size="30" font-weight="700" letter-spacing="0.2">USPS</text>
</svg>
